<?xml version="1.0" encoding="UTF-8" standalone="no"?>
<svg
   xmlns:dc="http://purl.org/dc/elements/1.1/"
   xmlns:cc="http://creativecommons.org/ns#"
   xmlns:rdf="http://www.w3.org/1999/02/22-rdf-syntax-ns#"
   xmlns:svg="http://www.w3.org/2000/svg"
   xmlns="http://www.w3.org/2000/svg"
   id="svg5154"
   version="1.1"
   viewBox="0 0 68.714516 46.265618"
   height="46.265617mm"
   width="68.714516mm">
  <defs
     id="defs5148">
    <clipPath
       clipPathUnits="userSpaceOnUse"
       id="clipPath9684">
      <path
         d="M 0,0 H 277.688 V 252.997 H 0 Z"
         id="path9682" />
    </clipPath>
    <clipPath
       clipPathUnits="userSpaceOnUse"
       id="clipPath9698">
      <path
         d="M 0,0 H 277.688 V 252.997 H 0 Z"
         id="path9696" />
    </clipPath>
    <clipPath
       clipPathUnits="userSpaceOnUse"
       id="clipPath9742">
      <path
         d="M 0,0 H 277.688 V 252.998 H 0 Z"
         id="path9740" />
    </clipPath>
    <clipPath
       clipPathUnits="userSpaceOnUse"
       id="clipPath9762">
      <path
         d="M 0,0 H 277.688 V 252.998 H 0 Z"
         id="path9760" />
    </clipPath>
    <clipPath
       clipPathUnits="userSpaceOnUse"
       id="clipPath9817">
      <path
         d="M 0,0 H 277.688 V 252.997 H 0 Z"
         id="path9815" />
    </clipPath>
  </defs>
  <metadata
     id="metadata5151">
    <rdf:RDF>
      <cc:Work
         rdf:about="">
        <dc:format>image/svg+xml</dc:format>
        <dc:type
           rdf:resource="http://purl.org/dc/dcmitype/StillImage" />
        <dc:title></dc:title>
      </cc:Work>
    </rdf:RDF>
  </metadata>
  <g
     transform="translate(51.285113,-116.35814)"
     id="layer1">
    <g
       style="fill:#005eb8;fill-opacity:1"
       transform="translate(-61.515627,17.728424)"
       id="g9933">
      <path
         style="fill:#005eb8;stroke-width:1;fill-opacity:1"
         d="m 29.641965,144.55847 c -2.926716,-0.72638 -5.446584,-2.5486 -5.929512,-4.28789 -0.555796,-2.00172 -0.233175,-3.42133 1.150437,-5.06221 l 0.725073,-0.8599 h -1.614369 c -3.983257,0 -8.993726,-2.37097 -10.909371,-5.16234 -1.871778,-2.72745 -2.604749,-4.84979 -2.793462,-8.08853 -0.174387,-2.99289 0.181826,-4.35824 1.78361,-6.83651 1.032091,-1.59684 4.115221,-4.85407 5.779998,-6.10637 0.483628,-0.3638 1.19506,-0.91076 1.580959,-1.21546 2.260923,-1.78519 7.94489,-4.67857 11.549554,-5.87921 5.343517,-1.779822 9.411391,-2.430332 15.197617,-2.430332 3.983024,0 6.408028,0.32602 9.408634,1.26491 2.767771,0.866042 8.463584,3.926052 10.696459,5.746552 2.189371,1.78503 5.998575,5.56249 6.845122,6.78807 0.235636,0.34115 0.582552,0.77801 0.770922,0.97083 0.972217,0.99512 2.747196,3.99742 3.716899,6.28697 1.275633,3.01187 1.746686,8.4482 0.9609,11.08954 -0.922456,3.10077 -4.084484,6.79532 -7.133071,8.33438 l -1.834314,0.92604 -7.408334,0.0178 -7.408333,0.0178 -3.175001,1.09474 c -1.74625,0.60211 -4.425156,1.53235 -5.953125,2.06721 -1.527969,0.53485 -3.671094,1.13318 -4.7625,1.32962 -2.468608,0.44432 -9.445738,0.44074 -11.244792,-0.006 z m 14.816667,-2.65082 c 1.714535,-0.40307 2.705307,-0.73174 4.7625,-1.57987 5.949432,-2.45278 8.322591,-2.81627 15.875001,-2.4315 4.077428,0.20773 5.842574,-0.0128 7.760811,-0.96962 3.575865,-1.78364 4.68788,-6.87758 2.973777,-13.62231 -0.316301,-1.2446 -2.272795,-5.1118 -3.061671,-6.05169 -0.145521,-0.17338 -0.740834,-0.98696 -1.322917,-1.80795 -0.582083,-0.82098 -2.38052,-2.7782 -3.996529,-4.34937 -5.996194,-5.82983 -12.727488,-9.25489 -19.822769,-10.08635 -2.528284,-0.29628 -3.533619,-0.28198 -7.540625,0.10729 -2.868938,0.27871 -5.527038,0.70185 -7.004662,1.11506 -1.309687,0.36626 -2.797968,0.7723 -3.307291,0.90233 -2.98399,0.76178 -10.202265,4.514 -12.204126,6.34397 -0.238785,0.21828 -1.044078,0.91369 -1.78954,1.54537 -0.978365,0.82902 -1.612531,1.68312 -2.279819,3.07047 -0.8391,1.74456 -0.924433,2.13546 -0.924433,4.23474 0,6.97806 4.263089,12.07481 11.271193,13.47531 1.178687,0.23555 2.815797,0.42827 3.638021,0.42827 0.822225,0 1.494954,0.1008 1.494954,0.224 0,0.38027 -1.808102,1.73203 -2.252386,2.15725 -3.769189,3.75313 2.446743,7.59227 4.633635,8.01819 2.186892,0.42591 11.305911,-0.30254 13.096876,-0.72359 z"
         id="path9912" />
      <text
         xml:space="preserve"
         style="font-style:normal;font-variant:normal;font-weight:normal;font-stretch:normal;font-size:24.97892189px;line-height:125%;font-family:Sintertest;-inkscape-font-specification:Sintertest;letter-spacing:0px;word-spacing:0px;fill:#005eb8;fill-opacity:1;stroke:none;stroke-width:0.26458332px;stroke-linecap:butt;stroke-linejoin:miter;stroke-opacity:1"
         x="18.211199"
         y="129.61592"
         id="text9916"
         transform="scale(1.0287485,0.97205485)"><tspan
           id="tspan9914"
           x="18.211199"
           y="129.61592"
           style="font-style:normal;font-variant:normal;font-weight:normal;font-stretch:normal;font-family:Times;-inkscape-font-specification:Times;stroke-width:0.26458332px;fill:#005eb8;fill-opacity:1">N</tspan></text>
      <text
         transform="scale(0.97545932,1.0251581)"
         id="text9920"
         y="127.7871"
         x="38.584782"
         style="font-style:normal;font-variant:normal;font-weight:normal;font-stretch:normal;font-size:26.05165863px;line-height:125%;font-family:Sintertest;-inkscape-font-specification:Sintertest;letter-spacing:0px;word-spacing:0px;fill:#005eb8;fill-opacity:1;stroke:none;stroke-width:0.26458332px;stroke-linecap:butt;stroke-linejoin:miter;stroke-opacity:1"
         xml:space="preserve"><tspan
           style="font-style:normal;font-variant:normal;font-weight:normal;font-stretch:normal;font-family:Times;-inkscape-font-specification:Times;stroke-width:0.26458332px;fill:#005eb8;fill-opacity:1"
           y="127.7871"
           x="38.584782"
           id="tspan9918">B</tspan></text>
      <text
         xml:space="preserve"
         style="font-style:normal;font-variant:normal;font-weight:normal;font-stretch:normal;font-size:25.19061279px;line-height:125%;font-family:Sintertest;-inkscape-font-specification:Sintertest;letter-spacing:0px;word-spacing:0px;fill:#005eb8;fill-opacity:1;stroke:none;stroke-width:0.26458332px;stroke-linecap:butt;stroke-linejoin:miter;stroke-opacity:1"
         x="55.184357"
         y="133.55206"
         id="text9924"
         transform="scale(0.99366314,1.0063773)"><tspan
           id="tspan9922"
           x="55.184357"
           y="133.55206"
           style="font-style:normal;font-variant:normal;font-weight:normal;font-stretch:normal;font-family:Times;-inkscape-font-specification:Times;stroke-width:0.26458332px;fill:#005eb8;fill-opacity:1">E</tspan></text>
    </g>
  </g>
  <g
     transform="translate(163.87395,-50.316314)"
     id="layer2" />
</svg>
