<?xml version="1.0" encoding="UTF-8" standalone="no"?>
<!-- Created with Inkscape (http://www.inkscape.org/) -->

<svg
   xmlns:dc="http://purl.org/dc/elements/1.1/"
   xmlns:cc="http://creativecommons.org/ns#"
   xmlns:rdf="http://www.w3.org/1999/02/22-rdf-syntax-ns#"
   xmlns:svg="http://www.w3.org/2000/svg"
   xmlns="http://www.w3.org/2000/svg"
   xmlns:sodipodi="http://sodipodi.sourceforge.net/DTD/sodipodi-0.dtd"
   xmlns:inkscape="http://www.inkscape.org/namespaces/inkscape"
   width="48.462139mm"
   height="39.751881mm"
   viewBox="0 0 48.462139 39.751881"
   version="1.1"
   id="svg5154"
   sodipodi:docname="logo_aalto3.svg"
   inkscape:version="0.92.5 (2060ec1f9f, 2020-04-08)">
  <defs
     id="defs5148">
    <clipPath
       id="clipPath9684"
       clipPathUnits="userSpaceOnUse">
      <path
         inkscape:connector-curvature="0"
         id="path9682"
         d="M 0,0 H 277.688 V 252.997 H 0 Z" />
    </clipPath>
    <clipPath
       id="clipPath9698"
       clipPathUnits="userSpaceOnUse">
      <path
         inkscape:connector-curvature="0"
         id="path9696"
         d="M 0,0 H 277.688 V 252.997 H 0 Z" />
    </clipPath>
    <clipPath
       id="clipPath9742"
       clipPathUnits="userSpaceOnUse">
      <path
         inkscape:connector-curvature="0"
         id="path9740"
         d="M 0,0 H 277.688 V 252.998 H 0 Z" />
    </clipPath>
    <clipPath
       id="clipPath9762"
       clipPathUnits="userSpaceOnUse">
      <path
         inkscape:connector-curvature="0"
         id="path9760"
         d="M 0,0 H 277.688 V 252.998 H 0 Z" />
    </clipPath>
    <clipPath
       id="clipPath9817"
       clipPathUnits="userSpaceOnUse">
      <path
         inkscape:connector-curvature="0"
         id="path9815"
         d="M 0,0 H 277.688 V 252.997 H 0 Z" />
    </clipPath>
  </defs>
  <sodipodi:namedview
     id="base"
     pagecolor="#ffffff"
     bordercolor="#666666"
     borderopacity="1.0"
     inkscape:pageopacity="0.0"
     inkscape:pageshadow="2"
     inkscape:zoom="1.4"
     inkscape:cx="-291.43852"
     inkscape:cy="-130.50791"
     inkscape:document-units="mm"
     inkscape:current-layer="layer1"
     showgrid="false"
     inkscape:window-width="2558"
     inkscape:window-height="1389"
     inkscape:window-x="0"
     inkscape:window-y="29"
     inkscape:window-maximized="0"
     fit-margin-top="0"
     fit-margin-left="0"
     fit-margin-right="0"
     fit-margin-bottom="0" />
  <metadata
     id="metadata5151">
    <rdf:RDF>
      <cc:Work
         rdf:about="">
        <dc:format>image/svg+xml</dc:format>
        <dc:type
           rdf:resource="http://purl.org/dc/dcmitype/StillImage" />
        <dc:title />
      </cc:Work>
    </rdf:RDF>
  </metadata>
  <g
     inkscape:label="Layer 1"
     inkscape:groupmode="layer"
     id="layer1"
     transform="translate(-112.58884,-66.041828)">
    <g
       transform="matrix(0.35277777,0,0,-0.35277777,87.839011,130.54368)"
       inkscape:label="logo-25071-1"
       id="g9734"
       style="fill:#005eb8;fill-opacity:1">
      <g
         id="g9736"
         style="fill:#005eb8;fill-opacity:1">
        <g
           clip-path="url(#clipPath9742)"
           id="g9738"
           style="fill:#005eb8;fill-opacity:1">
          <g
             transform="translate(136.8292,166.1379)"
             id="g9744"
             style="fill:#005eb8;fill-opacity:1">
            <path
               inkscape:connector-curvature="0"
               id="path9746"
               style="fill:#005eb8;fill-opacity:1;fill-rule:nonzero;stroke:none"
               d="M 0,0 H 8.076 C 8.076,-5.008 4.531,-8.227 0,-8.513 v -7.879 c 9.576,0.525 16.712,6.959 16.712,18.951 V 16.702 H 0 Z" />
          </g>
          <g
             transform="translate(159.1095,166.1379)"
             id="g9748"
             style="fill:#005eb8;fill-opacity:1">
            <path
               inkscape:connector-curvature="0"
               id="path9750"
               style="fill:#005eb8;fill-opacity:1;fill-rule:nonzero;stroke:none"
               d="M 0,0 H 8.076 C 8.076,-5.008 4.531,-8.227 0,-8.513 v -7.879 c 9.576,0.525 16.712,6.959 16.712,18.951 V 16.702 H 0 Z" />
          </g>
        </g>
      </g>
      <g
         transform="translate(140.2927,113.3949)"
         id="g9752"
         style="fill:#005eb8;fill-opacity:1">
        <path
           inkscape:connector-curvature="0"
           id="path9754"
           style="fill:#005eb8;fill-opacity:1;fill-rule:nonzero;stroke:none"
           d="M 0,0 -24.592,69.445 H -45.543 L -70.135,0 h 17.452 l 4.254,12.288 h 26.723 L -17.453,0 Z m -26.503,26.148 h -17.129 l 8.564,24.742 z" />
      </g>
      <g
         id="g9756"
         style="fill:#005eb8;fill-opacity:1">
        <g
           clip-path="url(#clipPath9762)"
           id="g9758"
           style="fill:#005eb8;fill-opacity:1">
          <g
             transform="translate(77.195,89.1534)"
             id="g9764"
             style="fill:#005eb8;fill-opacity:1">
            <path
               inkscape:connector-curvature="0"
               id="path9766"
               style="fill:#005eb8;fill-opacity:1;fill-rule:nonzero;stroke:none"
               d="M 0,0 0.595,-2.214 H 3.403 L -0.099,8.805 h -3.089 l -3.85,-11.019 h 2.693 L -3.651,0 Z M -0.545,2.032 H -3.04 l 1.338,4.312 z m 7.153,1.222 c 0.099,0.645 0.561,0.959 1.404,0.959 0.776,0 1.239,-0.281 1.239,-0.744 0,-0.314 -0.182,-0.462 -0.71,-0.545 L 7.269,2.709 C 5.038,2.346 4.097,1.569 4.097,0.083 c 0,-1.504 1.173,-2.511 2.924,-2.511 0.958,0 1.503,0.198 2.296,0.842 C 9.4,-1.883 9.4,-1.933 9.499,-2.214 h 2.395 c -0.264,0.397 -0.297,0.512 -0.297,1.371 v 3.668 c 0,1.189 -0.215,1.817 -0.793,2.329 C 10.176,5.716 9.251,5.997 8.045,5.997 5.798,5.997 4.658,5.105 4.51,3.254 Z M 9.317,0.363 c -0.38,-0.677 -0.942,-1.007 -1.718,-1.007 -0.727,0 -1.189,0.314 -1.189,0.842 0,0.479 0.363,0.76 1.206,0.958 l 0.842,0.182 c 0.397,0.083 0.611,0.149 0.859,0.248 z m 6.625,8.442 H 13.596 V -2.214 h 2.346 z m 6.36,-3.139 H 20.865 V 8.194 H 18.519 V 5.666 H 17.395 V 4.014 h 1.124 V 0.38 c 0,-1.239 0.099,-1.669 0.462,-2.065 0.347,-0.38 0.859,-0.529 1.884,-0.529 h 1.437 v 1.768 h -0.843 c -0.545,0 -0.594,0.099 -0.594,1.355 v 3.105 h 1.437 z m 5.27,0.314 c -2.478,0 -4.23,-1.751 -4.23,-4.196 0,-2.478 1.752,-4.212 4.23,-4.212 2.461,0 4.245,1.734 4.245,4.146 0,2.528 -1.718,4.262 -4.245,4.262 m 0,-1.867 c 1.206,0 1.883,-0.842 1.883,-2.378 0,-1.438 -0.694,-2.297 -1.883,-2.297 -1.19,0 -1.867,0.859 -1.867,2.346 0,1.47 0.677,2.329 1.867,2.329 M 43.778,8.805 V 1.52 c 0,-0.744 -0.116,-1.074 -0.446,-1.388 -0.364,-0.314 -0.893,-0.495 -1.504,-0.495 -0.594,0 -1.123,0.181 -1.487,0.495 -0.33,0.314 -0.446,0.644 -0.446,1.388 v 7.285 h -2.478 v -7.45 c 0,-1.388 0.364,-2.264 1.19,-2.875 0.842,-0.611 1.966,-0.941 3.221,-0.941 1.272,0 2.396,0.33 3.238,0.941 0.826,0.611 1.19,1.487 1.19,2.875 v 7.45 z m 4.724,-3.04 v -7.979 h 2.346 v 4.477 c 0,0.694 0.083,1.024 0.347,1.322 0.248,0.281 0.611,0.429 1.008,0.429 0.413,0 0.76,-0.165 0.958,-0.462 0.198,-0.298 0.248,-0.611 0.248,-1.421 v -4.345 h 2.345 v 5.171 c 0,1.883 -1.057,3.04 -2.791,3.04 -0.826,0 -1.306,-0.215 -2.181,-1.008 v 0.776 z m 11.828,0 h -2.346 v -7.979 h 2.346 z m 0,3.04 H 57.984 V 6.872 h 2.346 z m 6.575,-11.019 2.71,7.979 H 67.104 L 66.294,2.709 C 66.178,2.23 65.98,1.322 65.798,0.413 65.534,1.371 65.336,2.148 65.171,2.709 l -0.892,3.056 h -2.462 l 2.858,-7.979 z M 78.519,1.09 c 0,1.058 -0.116,1.768 -0.364,2.429 -0.578,1.586 -1.866,2.461 -3.584,2.461 -2.396,0 -4.081,-1.734 -4.081,-4.212 0,-2.511 1.636,-4.196 4.097,-4.196 1.9,0 3.387,0.991 3.833,2.544 H 76.041 C 75.71,-0.38 75.281,-0.595 74.653,-0.595 73.645,-0.595 73.001,0 72.852,1.09 Z m -5.65,1.652 c 0.182,0.925 0.776,1.454 1.685,1.454 0.909,0 1.454,-0.529 1.553,-1.454 z m 7.335,3.023 v -7.979 h 2.346 v 2.247 c 0,1.553 0.082,2.296 0.313,2.825 0.265,0.595 0.926,0.958 1.735,0.958 0.165,0 0.314,-0.016 0.595,-0.049 V 5.98 C 83.491,5.997 82.897,5.633 82.434,4.345 L 82.5,5.765 Z M 93.37,3.37 c -0.198,1.685 -1.454,2.61 -3.502,2.61 -2.115,0 -3.403,-0.974 -3.403,-2.577 0,-1.272 0.677,-1.916 2.428,-2.296 l 1.454,-0.331 c 0.628,-0.148 0.892,-0.363 0.892,-0.726 0,-0.463 -0.496,-0.777 -1.223,-0.777 -0.941,0 -1.437,0.364 -1.569,1.107 H 86.25 c 0.132,-1.768 1.503,-2.808 3.717,-2.808 2.214,0 3.585,1.057 3.585,2.742 0,0.644 -0.215,1.239 -0.595,1.602 C 92.61,2.28 92.114,2.495 91.14,2.693 l -1.47,0.314 c -0.744,0.165 -0.975,0.314 -0.975,0.611 0,0.396 0.446,0.661 1.123,0.661 0.777,0 1.256,-0.314 1.355,-0.909 z m 4.031,2.395 h -2.346 v -7.979 h 2.346 z m 0,3.04 H 95.055 V 6.872 h 2.346 z m 6.525,-3.139 h -1.437 v 2.528 h -2.346 V 5.666 H 99.02 V 4.014 h 1.123 V 0.38 c 0,-1.239 0.099,-1.669 0.463,-2.065 0.347,-0.38 0.859,-0.529 1.883,-0.529 h 1.437 v 1.768 h -0.842 c -0.546,0 -0.595,0.099 -0.595,1.355 v 3.105 h 1.437 z m 6.757,0.099 -1.041,-3.601 C 109.46,1.454 109.328,0.909 109.229,0.38 l -0.099,0.314 c -0.182,0.661 -0.182,0.677 -0.413,1.421 l -1.173,3.65 h -2.511 l 2.627,-6.707 c 0.28,-0.693 0.297,-0.743 0.297,-1.024 0,-0.694 -0.38,-1.008 -1.206,-1.008 h -0.694 v -1.767 h 1.371 c 1.784,0 2.164,0.33 2.908,2.461 l 2.775,8.045 z" />
          </g>
          <g
             transform="translate(79.717,77.9714)"
             id="g9768"
             style="fill:#005eb8;fill-opacity:1">
            <path
               inkscape:connector-curvature="0"
               id="path9770"
               style="fill:#005eb8;fill-opacity:1;fill-rule:nonzero;stroke:none"
               d="M 0,0 C -0.099,0.942 -0.264,1.503 -0.595,2.032 -1.272,3.139 -2.561,3.7 -4.394,3.7 -7.17,3.7 -8.822,2.428 -8.822,0.297 c 0,-0.892 0.314,-1.685 0.876,-2.164 0.495,-0.429 1.222,-0.743 2.395,-1.024 l 1.999,-0.496 c 0.777,-0.198 1.19,-0.578 1.19,-1.123 0,-0.76 -0.777,-1.239 -2.049,-1.239 -1.503,0 -2.214,0.562 -2.263,1.817 h -2.478 c 0.016,-2.461 1.735,-3.882 4.708,-3.882 2.858,0 4.609,1.404 4.609,3.684 0,0.876 -0.281,1.586 -0.842,2.098 -0.529,0.496 -1.206,0.793 -2.429,1.09 l -2.23,0.512 c -0.677,0.166 -1.008,0.48 -1.008,0.942 0,0.694 0.711,1.123 1.884,1.123 1.239,0 1.982,-0.545 1.982,-1.453 V 0 Z m 9.201,-2.461 c -0.148,1.899 -1.569,3.089 -3.65,3.089 -2.528,0 -4.048,-1.603 -4.048,-4.229 0,-2.561 1.536,-4.18 3.965,-4.18 2.114,0 3.502,1.14 3.833,3.155 L 7.021,-4.51 C 6.839,-5.452 6.377,-5.881 5.534,-5.881 c -1.09,0 -1.669,0.826 -1.669,2.346 0,1.453 0.579,2.263 1.652,2.263 0.777,0 1.322,-0.446 1.454,-1.189 z m 4.147,5.914 H 11.002 V -7.566 h 2.346 v 4.477 c 0,0.842 0.049,1.074 0.314,1.338 0.247,0.264 0.627,0.413 1.024,0.413 0.396,0 0.727,-0.149 0.925,-0.413 0.215,-0.281 0.264,-0.578 0.264,-1.338 v -4.477 h 2.346 v 4.906 c 0,1.206 -0.198,1.884 -0.71,2.445 -0.512,0.545 -1.256,0.859 -2.049,0.859 -0.826,0 -1.454,-0.281 -2.114,-0.908 z M 24.284,0.628 c -2.478,0 -4.229,-1.751 -4.229,-4.196 0,-2.478 1.751,-4.213 4.229,-4.213 2.461,0 4.246,1.735 4.246,4.147 0,2.527 -1.719,4.262 -4.246,4.262 m 0,-1.867 c 1.206,0 1.883,-0.843 1.883,-2.379 0,-1.437 -0.694,-2.296 -1.883,-2.296 -1.19,0 -1.867,0.859 -1.867,2.346 0,1.47 0.677,2.329 1.867,2.329 m 9.912,1.867 c -2.478,0 -4.229,-1.751 -4.229,-4.196 0,-2.478 1.751,-4.213 4.229,-4.213 2.461,0 4.245,1.735 4.245,4.147 0,2.527 -1.718,4.262 -4.245,4.262 m 0,-1.867 c 1.206,0 1.883,-0.843 1.883,-2.379 0,-1.437 -0.694,-2.296 -1.883,-2.296 -1.19,0 -1.867,0.859 -1.867,2.346 0,1.47 0.677,2.329 1.867,2.329 m 8.425,4.692 H 40.275 V -7.566 h 2.346 z m 9.614,-2.825 c -2.478,0 -4.229,-1.751 -4.229,-4.196 0,-2.478 1.751,-4.213 4.229,-4.213 2.462,0 4.246,1.735 4.246,4.147 0,2.527 -1.718,4.262 -4.246,4.262 m 0,-1.867 c 1.206,0 1.884,-0.843 1.884,-2.379 0,-1.437 -0.694,-2.296 -1.884,-2.296 -1.189,0 -1.866,0.859 -1.866,2.346 0,1.47 0.677,2.329 1.866,2.329 m 10.16,1.553 h -1.52 v 0.562 c 0,0.462 0.281,0.71 0.826,0.71 h 0.694 v 1.867 h -1.288 c -1.735,0 -2.578,-0.843 -2.578,-2.561 V 0.314 h -1.106 v -1.652 h 1.106 v -6.228 h 2.346 v 6.228 h 1.52 z M 76.784,0 c -0.099,0.942 -0.265,1.503 -0.595,2.032 -0.677,1.107 -1.966,1.668 -3.8,1.668 -2.775,0 -4.427,-1.272 -4.427,-3.403 0,-0.892 0.314,-1.685 0.876,-2.164 0.495,-0.429 1.222,-0.743 2.395,-1.024 l 1.999,-0.496 c 0.776,-0.198 1.189,-0.578 1.189,-1.123 0,-0.76 -0.776,-1.239 -2.048,-1.239 -1.503,0 -2.214,0.562 -2.263,1.817 h -2.478 c 0.016,-2.461 1.734,-3.882 4.708,-3.882 2.858,0 4.609,1.404 4.609,3.684 0,0.876 -0.281,1.586 -0.843,2.098 -0.528,0.496 -1.206,0.793 -2.428,1.09 l -2.23,0.512 c -0.678,0.166 -1.008,0.48 -1.008,0.942 0,0.694 0.71,1.123 1.883,1.123 1.239,0 1.983,-0.545 1.983,-1.453 V 0 Z m 9.201,-2.461 c -0.149,1.899 -1.569,3.089 -3.651,3.089 -2.527,0 -4.047,-1.603 -4.047,-4.229 0,-2.561 1.536,-4.18 3.965,-4.18 2.114,0 3.502,1.14 3.832,3.155 l -2.279,0.116 c -0.182,-0.942 -0.645,-1.371 -1.487,-1.371 -1.091,0 -1.669,0.826 -1.669,2.346 0,1.453 0.578,2.263 1.652,2.263 0.777,0 1.322,-0.446 1.454,-1.189 z m 4.064,2.874 h -2.346 v -7.979 h 2.346 z m 0,3.04 H 87.703 V 1.52 h 2.346 z m 9.862,-7.715 c 0,1.057 -0.115,1.767 -0.363,2.428 -0.578,1.586 -1.867,2.462 -3.585,2.462 -2.395,0 -4.08,-1.735 -4.08,-4.213 0,-2.511 1.635,-4.196 4.097,-4.196 1.899,0 3.386,0.991 3.832,2.544 h -2.379 c -0.33,-0.495 -0.76,-0.71 -1.387,-0.71 -1.008,0 -1.652,0.595 -1.801,1.685 z m -5.649,1.652 c 0.181,0.925 0.776,1.454 1.685,1.454 0.908,0 1.453,-0.529 1.552,-1.454 z m 7.5,3.023 v -7.979 h 2.345 v 4.477 c 0,0.694 0.083,1.024 0.347,1.321 0.248,0.281 0.612,0.43 1.008,0.43 0.413,0 0.76,-0.165 0.958,-0.463 0.198,-0.297 0.248,-0.611 0.248,-1.42 v -4.345 h 2.346 v 5.171 c 0,1.883 -1.057,3.039 -2.792,3.039 -0.826,0 -1.305,-0.214 -2.181,-1.007 v 0.776 z m 16.701,-2.874 c -0.148,1.899 -1.569,3.089 -3.651,3.089 -2.527,0 -4.047,-1.603 -4.047,-4.229 0,-2.561 1.536,-4.18 3.965,-4.18 2.114,0 3.502,1.14 3.832,3.155 l -2.279,0.116 c -0.182,-0.942 -0.645,-1.371 -1.487,-1.371 -1.091,0 -1.669,0.826 -1.669,2.346 0,1.453 0.578,2.263 1.652,2.263 0.777,0 1.322,-0.446 1.454,-1.189 z m 9.35,-1.801 c 0,1.057 -0.115,1.767 -0.363,2.428 -0.578,1.586 -1.867,2.462 -3.585,2.462 -2.395,0 -4.08,-1.735 -4.08,-4.213 0,-2.511 1.635,-4.196 4.097,-4.196 1.899,0 3.386,0.991 3.832,2.544 h -2.379 c -0.33,-0.495 -0.759,-0.71 -1.387,-0.71 -1.008,0 -1.652,0.595 -1.801,1.685 z m -5.649,1.652 c 0.181,0.925 0.776,1.454 1.685,1.454 0.908,0 1.453,-0.529 1.553,-1.454 z" />
          </g>
        </g>
      </g>
    </g>
  </g>
</svg>
