<?xml version="1.0" encoding="UTF-8"?>
<!-- Created with Inkscape (http://www.inkscape.org/) -->
<svg width="4.3378mm" height="4.2312mm" version="1.1" viewBox="0 0 4.3378 4.2312" xmlns="http://www.w3.org/2000/svg">
 <g transform="translate(-56.873 -125.36)">
  <path d="m59.042 125.36c-1.1976 0-2.1689 0.97114-2.1689 2.1692 0 0.95823 0.62146 1.7713 1.4834 2.0583 0.10853 0.0199 0.14808-0.0471 0.14808-0.10466 0-0.0515-2e-3 -0.18789-3e-3 -0.36886-0.60335 0.13103-0.73066-0.29082-0.73066-0.29082-0.0987-0.25061-0.24089-0.31732-0.24089-0.31732-0.19694-0.1345 0.0149-0.13183 0.0149-0.13183 0.21771 0.0153 0.33223 0.22357 0.33223 0.22357 0.19348 0.33144 0.50774 0.2357 0.63132 0.18017 0.0197-0.14008 0.0758-0.23569 0.13769-0.28989-0.48165-0.0549-0.98805-0.24089-0.98805-1.0721 0-0.23689 0.0846-0.43037 0.2233-0.58204-0.0224-0.0549-0.0968-0.27538 0.0213-0.57406 0 0 0.18203-0.0583 0.59642 0.22225 0.17298-0.0481 0.35861-0.072 0.54303-0.073 0.1843 7.8e-4 0.36979 0.0249 0.54303 0.073 0.41414-0.28057 0.5959-0.22225 0.5959-0.22225 0.11838 0.29868 0.044 0.5192 0.0217 0.57406 0.13902 0.15167 0.22291 0.34515 0.22291 0.58204 0 0.83332-0.50721 1.0167-0.99031 1.0704 0.0778 0.067 0.14714 0.19934 0.14714 0.40175 0 0.28988-3e-3 0.52385-3e-3 0.59496 0 0.0581 0.0391 0.12557 0.14914 0.10439 0.86128-0.28749 1.4822-1.0999 1.4822-2.058 0-1.198-0.97127-2.1692-2.1693-2.1692" fill="#0645ad" fill-rule="evenodd"/>
 </g>
</svg>
