<?xml version="1.0" encoding="UTF-8"?>
<!-- Created with Inkscape (http://www.inkscape.org/) -->
<svg width="4.7625mm" height="4.2333mm" version="1.1" viewBox="0 0 4.7625 4.2333" xmlns="http://www.w3.org/2000/svg">
 <g transform="translate(-134.94 -163.83)">
  <path d="m135.62 165.65c-0.18213 0-0.32914 0.14702-0.32914 0.32915 0 0.18212 0.14701 0.32914 0.32914 0.32914s0.32915-0.14702 0.32915-0.32914c0-0.18213-0.14702-0.32915-0.32915-0.32915zm0-1.3166c-0.18213 0-0.32914 0.14702-0.32914 0.32915 0 0.18212 0.14701 0.32914 0.32914 0.32914s0.32915-0.14702 0.32915-0.32914c0-0.18213-0.14702-0.32915-0.32915-0.32915zm0 2.6332c-0.18213 0-0.32914 0.14922-0.32914 0.32915s0.14921 0.32915 0.32914 0.32915c0.17994 0 0.32915-0.14922 0.32915-0.32915s-0.14702-0.32915-0.32915-0.32915zm0.6583 0.54858h3.072v-0.43886h-3.072zm0-1.3166h3.072v-0.43886h-3.072zm0-1.7555v0.43887h3.072v-0.43887z" fill="#0645ad" stroke-width=".26458"/>
  <rect x="134.94" y="163.83" width="4.7625" height="4.2333" fill-opacity="0"/>
 </g>
</svg>
