<?xml version="1.0" encoding="UTF-8"?>
<!-- Created with Inkscape (http://www.inkscape.org/) -->
<svg width="4.2827mm" height="4.2827mm" version="1.1" viewBox="0 0 4.2827 4.2827" xmlns="http://www.w3.org/2000/svg">
 <g transform="translate(-93.579 -117.28)">
  <g transform="matrix(.21414 0 0 .21414 93.15 116.86)" stroke="#0645ad" stroke-width="1.2356">
   <g fill="#0645ad" stroke="none">
    <g fill="#0645ad">
     <path d="m6 15c-0.83 0-1.58 0.34-2.12 0.88-1.18 1.18-1.88 6.12-1.88 6.12s4.94-0.7 6.12-1.88c0.54-0.54 0.88-1.29 0.88-2.12 0-1.66-1.34-3-3-3zm0.71 3.71c-0.28 0.28-2.17 0.76-2.17 0.76s0.47-1.88 0.76-2.17c0.17-0.19 0.42-0.3 0.7-0.3 0.55 0 1 0.45 1 1 0 0.28-0.11 0.53-0.29 0.71zm10.71-5.06c6.36-6.36 4.24-11.31 4.24-11.31s-4.95-2.12-11.31 4.24l-2.49-0.5c-0.65-0.13-1.33 0.08-1.81 0.55l-4.05 4.06 5 2.14 4.17 4.17 2.14 5 4.05-4.05c0.47-0.47 0.68-1.15 0.55-1.81zm-10.01-2.82-1.91-0.82 1.97-1.97 1.44 0.29c-0.57 0.83-1.08 1.7-1.5 2.5zm6.58 7.67-0.82-1.91c0.8-0.42 1.67-0.93 2.49-1.5l0.29 1.44zm2.01-6.26c-1.32 1.32-3.38 2.4-4.04 2.73l-2.93-2.93c0.32-0.65 1.4-2.71 2.73-4.04 4.68-4.68 8.23-3.99 8.23-3.99s0.69 3.55-3.99 8.23zm-1-1.24c1.1 0 2-0.9 2-2s-0.9-2-2-2-2 0.9-2 2 0.9 2 2 2z" fill="#0645ad"/>
    </g>
   </g>
  </g>
 </g>
</svg>
