<?xml version="1.0" encoding="UTF-8"?>
<!-- Created with Inkscape (http://www.inkscape.org/) -->
<svg width="5.2917mm" height="4.2333mm" version="1.1" viewBox="0 0 5.2917 4.2333" xmlns="http://www.w3.org/2000/svg">
 <g transform="translate(-170.46 -143.7)">
  <g transform="matrix(.26458 0 0 .26458 169.93 142.64)" fill="#0645ad">
   <path d="m20 4h-16c-1.11 0-2 0.9-2 2v12c0 1.1 0.89 2 2 2h16c1.1 0 2-0.9 2-2v-12c0-1.1-0.89-2-2-2zm0 14h-16v-10h16zm-2-1h-6v-2h6zm-10.5 0-1.41-1.41 2.58-2.59-2.59-2.59 1.42-1.41 4 4z" fill="#0645ad"/>
  </g>
 </g>
</svg>
