<?xml version="1.0" encoding="UTF-8" standalone="no"?>
<!-- Created with Inkscape (http://www.inkscape.org/) -->

<svg
   width="2.6122499mm"
   height="4.2560878mm"
   viewBox="0 0 2.6122498 4.2560878"
   version="1.1"
   id="svg17124"
   inkscape:version="1.3.2 (1:1.3.2+202311252150+091e20ef0f)"
   sodipodi:docname="nav_meg.svg"
   xml:space="preserve"
   xmlns:inkscape="http://www.inkscape.org/namespaces/inkscape"
   xmlns:sodipodi="http://sodipodi.sourceforge.net/DTD/sodipodi-0.dtd"
   xmlns="http://www.w3.org/2000/svg"
   xmlns:svg="http://www.w3.org/2000/svg"><sodipodi:namedview
     id="namedview17126"
     pagecolor="#ffffff"
     bordercolor="#666666"
     borderopacity="1.0"
     inkscape:pageshadow="2"
     inkscape:pageopacity="0.0"
     inkscape:pagecheckerboard="0"
     inkscape:document-units="mm"
     showgrid="false"
     fit-margin-top="0"
     fit-margin-left="0"
     fit-margin-right="0"
     fit-margin-bottom="0"
     inkscape:zoom="18.928844"
     inkscape:cx="17.433711"
     inkscape:cy="21.580821"
     inkscape:window-width="2558"
     inkscape:window-height="1372"
     inkscape:window-x="0"
     inkscape:window-y="47"
     inkscape:window-maximized="1"
     inkscape:current-layer="layer1"
     inkscape:showpageshadow="2"
     inkscape:deskcolor="#d1d1d1" /><defs
     id="defs17121"><clipPath
       clipPathUnits="userSpaceOnUse"
       id="clipPath1"><rect
         style="fill:#000000;stroke:#0645ad;stroke-width:0.352777;stroke-linecap:round;stroke-opacity:1"
         id="rect2"
         width="55.931244"
         height="59.437721"
         x="-80.451538"
         y="129.20876"
         rx="1.511013"
         ry="1.511013" /></clipPath></defs><g
     inkscape:label="Layer 1"
     inkscape:groupmode="layer"
     id="layer1"
     transform="translate(-136.90055,-136.07476)"><path
       id="path6003"
       style="color:#000000;fill:#ffffff;fill-opacity:1;stroke:#0645ad;stroke-width:0.493195;stroke-linecap:round;stroke-linejoin:round;stroke-miterlimit:4;stroke-dasharray:none;stroke-opacity:1"
       sodipodi:type="inkscape:offset"
       inkscape:radius="-0.16757515"
       inkscape:original="M 32.880859 35.457031 C 32.302096 35.457031 31.835938 35.925143 31.835938 36.503906 C 31.835938 37.082669 32.302096 37.548828 32.880859 37.548828 C 33.459622 37.548828 33.927734 37.082669 33.927734 36.503906 C 33.927734 35.925143 33.459622 35.457031 32.880859 35.457031 z "
       transform="matrix(0.62612272,0,0,0.6246454,117.59872,115.41467)"
       d="m 32.880859,35.625 c -0.488404,0 -0.876953,0.390125 -0.876953,0.878906 0,0.488782 0.388172,0.876953 0.876953,0.876953 0.488782,0 0.878907,-0.388548 0.878907,-0.876953 0,-0.488404 -0.390502,-0.878906 -0.878907,-0.878906 z" /><path
       style="color:#000000;fill:#ffffff;fill-opacity:1;stroke:#0645ad;stroke-width:0.308436;stroke-linecap:round;stroke-linejoin:round;stroke-miterlimit:4;stroke-dasharray:none;stroke-opacity:1"
       d="m 138.79634,139.22927 c -0.16518,-0.11325 -0.25394,-0.19601 -0.60977,-0.19601 -0.35582,0 -0.43636,0.0522 -0.62781,0.19601 -0.19144,0.14381 -0.3842,0.33974 -0.3842,0.59673 v 0.35063 h 2.00598 V 139.826 c 0,-0.25699 -0.17157,-0.45095 -0.3842,-0.59673 z"
       id="path2075" /><path
       style="fill:#0146ad;fill-opacity:1;fill-rule:evenodd;stroke:#0645ad;stroke-width:0.265;stroke-linecap:round;stroke-linejoin:round;stroke-dasharray:none;stroke-opacity:1"
       d="m 137.03305,138.14147 0.002,-1.93421 2.34525,0.0112 -0.0336,1.91556 c 0,0 -0.13751,-0.83051 -1.1523,-0.83809 -1.01478,-0.008 -1.16135,0.8455 -1.16135,0.8455 z"
       id="path7"
       sodipodi:nodetypes="cccczc" /><path
       style="fill:none;fill-rule:evenodd;stroke:#ffffff;stroke-width:0.1;stroke-linecap:round;stroke-linejoin:round;stroke-dasharray:none;stroke-opacity:1"
       d="m 137.06687,136.77564 0.38663,-0.004 0.2448,-0.29143 0.25522,0.54739 0.25053,-0.37012 0.2104,0.18019 0.28158,-0.01 0.27405,-0.44375 0.14251,0.43798 0.13937,0.005"
       id="path8" /></g><g
     inkscape:groupmode="layer"
     id="layer2"
     inkscape:label="Layer 2"
     transform="translate(-2.13333,0.01395993)" /></svg>
